<?xml version="1.0" standalone="no"?>
<!DOCTYPE svg PUBLIC "-//W3C//DTD SVG 20010904//EN"
 "http://www.w3.org/TR/2001/REC-SVG-20010904/DTD/svg10.dtd">
<svg version="1.0" xmlns="http://www.w3.org/2000/svg"
 width="1231.000000pt" height="1280.000000pt" viewBox="0 0 1231.000000 1280.000000"
 preserveAspectRatio="xMidYMid meet">
<metadata>
Created by potrace 1.15, written by Peter Selinger 2001-2017
</metadata>
<g transform="translate(0.000000,1280.000000) scale(0.100000,-0.100000)"
fill="#000000" stroke="none">
<path d="M5385 12761 c-50 -25 -125 -78 -200 -140 -129 -108 -211 -157 -315
-189 -36 -11 -219 -83 -408 -160 l-343 -142 -74 12 c-187 29 -350 -46 -625
-289 l-132 -116 -142 49 c-133 46 -147 48 -246 49 -99 0 -109 -2 -172 -33 -96
-47 -204 -164 -287 -313 -103 -184 -131 -227 -193 -305 -85 -106 -441 -436
-863 -801 l-140 -121 -65 -7 c-76 -8 -214 -52 -298 -94 -86 -43 -228 -141
-299 -206 -113 -102 -157 -203 -169 -384 -6 -95 -7 -98 -74 -221 -262 -485
-343 -739 -327 -1015 16 -250 102 -442 276 -616 195 -194 460 -331 956 -494
534 -176 1034 -257 1490 -242 214 8 363 25 606 72 356 69 663 95 1122 95 l299
0 -4 -98 c-3 -72 -8 -106 -21 -125 -10 -15 -95 -89 -190 -164 -215 -172 -415
-369 -481 -476 -81 -130 -105 -249 -69 -338 l16 -42 76 6 c94 6 247 56 504
162 103 43 190 76 192 73 3 -3 -4 -135 -15 -294 -14 -204 -20 -394 -20 -644 0
-541 -22 -1059 -62 -1440 -11 -104 -13 -111 -19 -68 -19 126 -31 435 -26 646
5 184 10 245 28 322 28 121 39 344 16 320 -39 -39 -180 -281 -211 -363 -153
-395 -163 -867 -36 -1757 l39 -275 -44 -159 c-24 -87 -45 -160 -48 -162 -2 -2
-30 94 -62 214 -76 287 -186 676 -236 834 l-39 127 35 423 c61 731 85 967 106
1025 18 52 -25 102 -76 89 -68 -17 -207 -343 -294 -689 -22 -87 -41 -161 -44
-163 -3 -3 -21 25 -41 61 -82 146 -212 292 -299 337 -39 20 -40 20 -66 0 -35
-26 -36 -42 -8 -114 31 -77 101 -311 207 -693 81 -289 88 -330 72 -419 -7 -38
-9 -34 -71 130 -120 319 -206 501 -315 669 -72 110 -107 145 -143 145 -34 0
-63 -27 -63 -56 0 -11 9 -38 19 -60 28 -57 129 -405 312 -1073 l160 -586 -31
-285 c-17 -157 -35 -293 -38 -303 -5 -11 -27 91 -56 255 -142 809 -250 1260
-378 1583 -48 120 -154 331 -180 357 -37 37 -108 12 -108 -39 0 -11 7 -37 16
-58 41 -99 115 -524 274 -1580 l18 -119 -32 35 c-17 19 -82 94 -143 165 -244
283 -610 604 -688 604 -23 0 -65 -41 -65 -65 0 -6 21 -38 46 -71 89 -114 450
-665 870 -1329 l139 -219 32 -211 c17 -115 32 -223 32 -239 1 -22 -33 19 -165
205 -200 280 -459 627 -655 876 -144 182 -144 183 -218 355 -99 233 -274 588
-358 725 -145 240 -285 410 -421 513 -55 41 -73 50 -102 48 -26 -2 -38 -10
-50 -30 -14 -26 -13 -31 12 -77 29 -50 64 -130 154 -344 l54 -129 -81 74
c-193 175 -370 308 -410 308 -26 0 -59 -35 -59 -64 0 -14 23 -51 59 -94 52
-62 396 -531 526 -717 l49 -70 -95 90 c-103 99 -215 191 -296 243 -56 36 -95
36 -113 2 -15 -28 -12 -66 6 -81 37 -31 295 -485 814 -1434 144 -264 271 -495
282 -512 11 -18 18 -33 16 -33 -3 0 -44 48 -93 108 -49 59 -179 197 -289 307
-277 275 -531 481 -926 747 -270 182 -454 298 -474 298 -22 0 -66 -44 -66 -66
0 -9 75 -93 168 -188 220 -225 639 -687 997 -1100 l60 -69 -65 43 c-162 104
-326 166 -696 259 -217 54 -254 67 -390 131 -195 94 -331 150 -360 150 -31 0
-64 -33 -64 -63 0 -13 10 -33 22 -44 59 -53 230 -138 383 -193 229 -80 702
-363 935 -558 144 -120 230 -234 230 -303 0 -65 55 -88 212 -89 92 0 221 32
256 63 13 12 27 13 62 7 116 -23 267 -6 361 40 38 18 51 18 167 10 210 -15
300 -13 373 11 35 12 72 25 82 31 14 7 23 3 42 -20 17 -20 38 -32 67 -37 46
-7 276 -18 393 -18 78 0 198 31 236 62 23 18 24 18 52 -3 26 -19 43 -21 190
-23 312 -5 445 -17 519 -45 178 -69 487 -129 808 -159 179 -17 702 -14 975 5
249 18 624 65 770 96 113 25 172 44 258 83 37 16 70 28 72 25 3 -3 17 -45 31
-94 15 -49 30 -93 34 -97 4 -5 106 -17 226 -27 1290 -110 2165 -118 2269 -20
12 11 32 43 45 70 22 46 26 50 59 50 20 0 56 5 80 11 36 8 47 7 61 -6 76 -69
387 -89 446 -30 14 14 24 36 24 53 0 84 127 231 333 386 226 169 650 413 821
473 167 57 382 171 410 215 16 26 -4 71 -37 82 -37 13 -81 -3 -332 -121 -191
-89 -211 -96 -436 -153 -278 -70 -372 -99 -491 -150 -76 -33 -116 -55 -238
-129 l-25 -15 21 25 c257 305 907 1021 1098 1208 55 53 96 102 96 113 0 24
-43 68 -67 68 -23 0 -429 -263 -659 -427 -333 -237 -575 -443 -820 -697 l-154
-160 0 48 c0 42 16 76 146 314 81 147 148 269 150 271 2 2 66 10 143 17 158
15 245 41 356 106 147 86 319 299 346 427 8 38 10 131 6 296 l-5 240 98 76
c129 101 138 121 152 314 l11 145 -31 62 c-18 35 -64 99 -102 143 -39 44 -82
103 -95 130 -23 46 -25 61 -24 180 2 225 -51 379 -211 619 -67 100 -71 108
-61 139 31 102 19 204 -37 311 -67 128 -203 239 -367 302 -64 24 -78 26 -176
21 l-106 -5 -184 137 c-118 89 -191 150 -203 172 -29 51 -133 156 -199 201
-78 53 -149 84 -240 102 -92 19 -158 20 -257 2 -191 -35 -309 -116 -350 -239
-9 -30 -16 -37 -29 -31 -111 49 -231 66 -372 53 -156 -14 -351 -75 -453 -140
l-49 -31 -151 28 c-200 36 -355 38 -438 5 -67 -26 -128 -82 -162 -148 -13 -26
-39 -71 -58 -99 -19 -27 -56 -101 -84 -163 l-49 -112 -7 48 c-4 26 -21 154
-37 283 -17 129 -60 457 -97 727 -37 271 -66 495 -63 497 2 3 56 -6 119 -20
63 -14 147 -29 185 -34 64 -9 555 -40 633 -40 l32 0 0 58 c0 119 -104 254
-255 334 -39 20 -99 61 -135 91 -36 31 -102 87 -148 125 -94 79 -181 126 -264
141 -68 12 -100 31 -127 75 -23 37 -51 136 -51 181 l0 31 148 -23 c619 -97
1195 -141 1507 -114 77 7 230 26 340 42 455 67 452 67 905 99 287 21 456 53
666 129 226 81 433 184 634 316 182 120 309 284 354 459 28 108 39 225 31 331
-5 55 -9 199 -10 320 -2 245 -7 306 -36 415 -45 168 -144 291 -286 357 -39 18
-77 33 -83 33 -6 0 -27 11 -48 25 -20 13 -84 41 -142 61 -116 40 -131 47 -154
70 -30 29 -19 65 35 120 48 49 51 54 66 140 34 194 -9 334 -122 404 -40 25
-138 54 -268 81 -143 29 -238 76 -289 143 -56 75 -56 88 -5 149 120 142 127
214 29 312 -66 66 -132 93 -401 166 -101 27 -212 63 -246 79 -104 50 -211 136
-457 366 -104 97 -116 106 -192 131 -77 26 -88 27 -241 24 -377 -9 -362 -11
-451 33 -67 33 -95 56 -184 149 -125 130 -193 181 -331 246 -186 89 -336 117
-466 87 -157 -35 -292 -18 -613 78 -102 31 -230 65 -285 77 -74 15 -109 27
-135 48 -19 15 -50 36 -69 45 -89 46 -108 49 -386 56 -148 4 -279 11 -290 14
-14 5 -46 -6 -100 -33z m-1338 -10769 c45 -163 81 -301 80 -305 -4 -15 -177
559 -177 589 0 15 3 24 7 21 4 -4 44 -141 90 -305z m-110 -948 c-2 -2 -23 27
-47 64 -44 69 -50 98 -34 177 6 25 13 7 46 -104 21 -74 37 -135 35 -137z"/>
</g>
</svg>
